<?xml version="1.0" encoding="UTF-8" standalone="no"?><svg xmlns="http://www.w3.org/2000/svg" xmlns:xlink="http://www.w3.org/1999/xlink" contentStyleType="text/css" height="608px" preserveAspectRatio="none" style="width:242px;height:608px;background:#FFFFFF;" version="1.1" viewBox="0 0 242 608" width="242px" zoomAndPan="magnify"><defs/><g><!--MD5=[b90a40847612195fb19976e883e10bdb]
cluster ICEBREAKER--><g id="cluster_ICEBREAKER"><path d="M40.5,132 L137.5,132 A3.75,3.75 0 0 1 140,134.5 L147,154.2969 L147.5,154.2969 A2.5,2.5 0 0 1 150,156.7969 L150,462.5 A2.5,2.5 0 0 1 147.5,465 L40.5,465 A2.5,2.5 0 0 1 38,462.5 L38,134.5 A2.5,2.5 0 0 1 40.5,132 " fill="none" style="stroke:#000000;stroke-width:1.5;"/><line style="stroke:#000000;stroke-width:1.5;" x1="38" x2="147" y1="154.2969" y2="154.2969"/><text fill="#000000" font-family="sans-serif" font-size="14" font-weight="bold" lengthAdjust="spacing" textLength="96" x="42" y="146.9951">ICEBREAKER</text></g><!--MD5=[596ff37df871fef92c403473680138df]
cluster NIC100 PMOD--><g id="cluster_NIC100 PMOD"><polygon fill="none" points="16,16,26,6,225,6,225,98,215,108,16,108,16,16" style="stroke:#181818;stroke-width:1.0;"/><line style="stroke:#181818;stroke-width:1.0;" x1="215" x2="225" y1="16" y2="6"/><line style="stroke:#181818;stroke-width:1.0;" x1="16" x2="215" y1="16" y2="16"/><line style="stroke:#181818;stroke-width:1.0;" x1="215" x2="215" y1="16" y2="108"/><text fill="#000000" font-family="sans-serif" font-size="14" font-weight="bold" lengthAdjust="spacing" textLength="108" x="62.5" y="31.9951">NIC100 PMOD</text></g><!--MD5=[4d478dcda890218ecfc0da48953be803]
cluster CAN PMOD--><g id="cluster_CAN PMOD"><polygon fill="none" points="21,499,31,489,220,489,220,581,210,591,21,591,21,499" style="stroke:#181818;stroke-width:1.0;"/><line style="stroke:#181818;stroke-width:1.0;" x1="210" x2="220" y1="499" y2="489"/><line style="stroke:#181818;stroke-width:1.0;" x1="21" x2="210" y1="499" y2="499"/><line style="stroke:#181818;stroke-width:1.0;" x1="210" x2="210" y1="499" y2="591"/><text fill="#000000" font-family="sans-serif" font-size="14" font-weight="bold" lengthAdjust="spacing" textLength="84" x="74.5" y="514.9951">CAN PMOD</text></g><!--MD5=[8aa534bb7fe4e681fa1cfa44822f8f8d]
entity FPGA--><g id="elem_FPGA"><rect fill="#F1F1F1" height="46.2969" rx="2.5" ry="2.5" style="stroke:#181818;stroke-width:0.5;" width="78" x="55" y="285"/><rect fill="#F1F1F1" height="10" style="stroke:#181818;stroke-width:0.5;" width="15" x="113" y="290"/><rect fill="#F1F1F1" height="2" style="stroke:#181818;stroke-width:0.5;" width="4" x="111" y="292"/><rect fill="#F1F1F1" height="2" style="stroke:#181818;stroke-width:0.5;" width="4" x="111" y="296"/><text fill="#000000" font-family="sans-serif" font-size="14" lengthAdjust="spacing" textLength="38" x="70" y="317.9951">FPGA</text></g><!--MD5=[5d2705354aab86d6801a387135cea434]
entity PMOD2--><g id="elem_PMOD2"><ellipse cx="94" cy="420" fill="#F1F1F1" rx="8" ry="8" style="stroke:#181818;stroke-width:0.5;"/><text fill="#000000" font-family="sans-serif" font-size="14" lengthAdjust="spacing" textLength="51" x="68.5" y="449.9951">PMOD2</text></g><!--MD5=[337336ee8dce4762213a6666180dcb59]
entity PMOD1--><g id="elem_PMOD1"><ellipse cx="94" cy="196" fill="#F1F1F1" rx="8" ry="8" style="stroke:#181818;stroke-width:0.5;"/><text fill="#000000" font-family="sans-serif" font-size="14" lengthAdjust="spacing" textLength="52" x="68" y="225.9951">PMOD1</text></g><!--MD5=[0f86c6e4bc6ae610d877bd3cfcd927f3]
entity ENC424J600--><g id="elem_ENC424J600"><rect fill="#F1F1F1" height="46.2969" rx="2.5" ry="2.5" style="stroke:#181818;stroke-width:0.5;" width="124" x="32" y="46"/><rect fill="#F1F1F1" height="10" style="stroke:#181818;stroke-width:0.5;" width="15" x="136" y="51"/><rect fill="#F1F1F1" height="2" style="stroke:#181818;stroke-width:0.5;" width="4" x="134" y="53"/><rect fill="#F1F1F1" height="2" style="stroke:#181818;stroke-width:0.5;" width="4" x="134" y="57"/><text fill="#000000" font-family="sans-serif" font-size="14" lengthAdjust="spacing" textLength="84" x="47" y="78.9951">ENC424J600</text></g><!--MD5=[afcbfbb64dc0c7068551bb4fa3bf6245]
entity RJ45--><g id="elem_RJ45"><ellipse cx="200" cy="69" fill="#F1F1F1" rx="8" ry="8" style="stroke:#181818;stroke-width:0.5;"/><text fill="#000000" font-family="sans-serif" font-size="14" lengthAdjust="spacing" textLength="31" x="184.5" y="98.9951">RJ45</text></g><!--MD5=[c5f873ca4dc8cc54deb2d9710fca4c6f]
entity MCP25625--><g id="elem_MCP25625"><rect fill="#F1F1F1" height="46.2969" rx="2.5" ry="2.5" style="stroke:#181818;stroke-width:0.5;" width="114" x="37" y="529"/><rect fill="#F1F1F1" height="10" style="stroke:#181818;stroke-width:0.5;" width="15" x="131" y="534"/><rect fill="#F1F1F1" height="2" style="stroke:#181818;stroke-width:0.5;" width="4" x="129" y="536"/><rect fill="#F1F1F1" height="2" style="stroke:#181818;stroke-width:0.5;" width="4" x="129" y="540"/><text fill="#000000" font-family="sans-serif" font-size="14" lengthAdjust="spacing" textLength="74" x="52" y="561.9951">MCP25625</text></g><!--MD5=[c25df19abf40ff5df5a499e849baa129]
entity DB9--><g id="elem_DB9"><ellipse cx="195" cy="552" fill="#F1F1F1" rx="8" ry="8" style="stroke:#181818;stroke-width:0.5;"/><text fill="#000000" font-family="sans-serif" font-size="14" lengthAdjust="spacing" textLength="30" x="180" y="581.9951">DB9</text></g><!--MD5=[8e031e98ad3db19d064be4ab7a7c874d]
link FPGA to PMOD2--><g id="link_FPGA_PMOD2"><path d="M94,331.26 C94,353.562 94,387.156 94,405.635 " fill="none" id="FPGA-to-PMOD2" style="stroke:#181818;stroke-width:1.0;"/><polygon fill="#181818" points="94,410.856,98,401.856,94,405.856,90,401.856,94,410.856" style="stroke:#181818;stroke-width:1.0;"/></g><!--MD5=[52793fd4f8ecb236e34c347275b66164]
link PMOD1 to FPGA--><g id="link_PMOD1_FPGA"><path d="M94,205.268 C94,220.848 94,255.184 94,279.652 " fill="none" id="PMOD1-to-FPGA" style="stroke:#181818;stroke-width:1.0;"/><polygon fill="#181818" points="94,284.713,98,275.713,94,279.713,90,275.713,94,284.713" style="stroke:#181818;stroke-width:1.0;"/></g><!--MD5=[e60bff3855dfa32a6313a66e9cba6791]
link ENC424J600 to RJ45--><g id="link_ENC424J600_RJ45"><path d="M156.109,69 C167.654,69 179.198,69 190.742,69 " fill="none" id="ENC424J600-RJ45" style="stroke:#181818;stroke-width:1.0;"/></g><!--MD5=[b951fef3550b98e43d2982b1bc7091f4]
link ENC424J600 to PMOD1--><g id="link_ENC424J600_PMOD1"><path d="M94,92.06 C94,118.053 94,160.399 94,181.771 " fill="none" id="ENC424J600-to-PMOD1" style="stroke:#181818;stroke-width:1.0;"/><polygon fill="#181818" points="94,186.971,98,177.971,94,181.971,90,177.971,94,186.971" style="stroke:#181818;stroke-width:1.0;"/></g><!--MD5=[8c2e087996e359698b2c263243911bd3]
link MCP25625 to DB9--><g id="link_MCP25625_DB9"><path d="M151.207,552 C162.725,552 174.244,552 185.762,552 " fill="none" id="MCP25625-DB9" style="stroke:#181818;stroke-width:1.0;"/></g><!--MD5=[f2a7d40b9c021bdd8ccdbc3502c793ac]
link PMOD2 to MCP25625--><g id="link_PMOD2_MCP25625"><path d="M94,429.132 C94,447.734 94,494.08 94,523.9566 " fill="none" id="PMOD2-to-MCP25625" style="stroke:#181818;stroke-width:1.0;"/><polygon fill="#181818" points="94,528.968,98,519.968,94,523.968,90,519.968,94,528.968" style="stroke:#181818;stroke-width:1.0;"/></g><!--MD5=[216664ab0b997f1c2141dcea476316c8]
@startuml
package "ICEBREAKER" {
  [FPGA]  - -> PMOD2
  PMOD1 - -> [FPGA]
}


node "NIC100 PMOD" {
  [ENC424J600] - RJ45
  [ENC424J600] - ->  PMOD1
}




node "CAN PMOD" {
  [MCP25625] - DB9
  PMOD2 - -> [MCP25625]
}
@enduml

PlantUML version 1.2022.14beta1(Unknown compile time)
(GPL source distribution)
Java Runtime: Java(TM) SE Runtime Environment
JVM: Java HotSpot(TM) 64-Bit Server VM
Default Encoding: UTF-8
Language: en
Country: US
--></g></svg>